<svg xmlns="http://www.w3.org/2000/svg" xmlns:xlink="http://www.w3.org/1999/xlink"><symbol viewBox="0 0 28 34" id="accessibility" xmlns="http://www.w3.org/2000/svg"><g transform="translate(.615 .77)" fill="#FFF"><path d="M25.212 8.308H1.442C.635 8.308 0 8.928 0 9.719s.635 1.412 1.442 1.412h7.154v19.765c0 .79.635 1.412 1.442 1.412.808 0 1.443-.621 1.443-1.412v-9.544h3.807v9.544c0 .79.635 1.412 1.443 1.412.807 0 1.442-.621 1.442-1.412V11.074h7.154c.808 0 1.442-.62 1.442-1.411-.173-.734-.807-1.355-1.557-1.355z"/><circle cx="13.385" cy="3.231" r="3.231"/></g></symbol><symbol fill="none" viewBox="0 0 14 14" id="arrow-down" xmlns="http://www.w3.org/2000/svg"><path d="M7 8.605L1.722 3.297a1.004 1.004 0 00-1.427 0 1.02 1.02 0 000 1.436l5.941 5.974c.21.21.49.306.764.292a.999.999 0 00.764-.293l5.94-5.973a1.02 1.02 0 000-1.436 1.004 1.004 0 00-1.426 0L7 8.605z" fill="currentColor"/></symbol><symbol viewBox="0 0 11 19" id="arrow-right" xmlns="http://www.w3.org/2000/svg"><path d="M1 1l8.456 8.456L1 17.91" stroke="currentColor" stroke-width="2" fill="none"/></symbol><symbol viewBox="0 0 64 61" id="check" xmlns="http://www.w3.org/2000/svg"><g transform="translate(2 2)" fill="none" fill-rule="evenodd"><path fill="#0772BA" fill-rule="nonzero" d="M14.131 28.382L9.87 32.394l13.069 12.533 27.22-26.798-4.317-3.958-22.96 22.602z"/><ellipse stroke="#0E3353" stroke-width="4" cx="30" cy="28.5" rx="30" ry="28.5"/></g></symbol><symbol viewBox="0 0 7 13" id="chevron-right" xmlns="http://www.w3.org/2000/svg"><path d="M1 1l5 5.5L1 12" fill="none"/></symbol><symbol viewBox="0 0 12 7" id="chevron-white" xmlns="http://www.w3.org/2000/svg"><path d="M1 1l5 5 5-5" stroke="#FFF" stroke-width="1.5" fill="none"/></symbol><symbol fill="none" viewBox="0 0 17 17" id="clock" xmlns="http://www.w3.org/2000/svg"><path clip-rule="evenodd" d="M8.5 16.323c-4.135 0-7.5-3.437-7.5-7.661C1 4.437 4.365 1 8.5 1 12.636 1 16 4.437 16 8.662c0 4.224-3.364 7.661-7.5 7.661z" stroke="currentColor"/><path d="M8 4.561c0-.149.044-.291.121-.397A.37.37 0 018.415 4c.11 0 .215.06.293.164a.675.675 0 01.121.397v4.423l2.002 2.005a.533.533 0 01.109.161.75.75 0 01.048.425.661.661 0 01-.07.199.491.491 0 01-.12.147.349.349 0 01-.152.073.309.309 0 01-.162-.011.38.38 0 01-.146-.096L8 9.545V4.56z" fill="currentColor"/></symbol><symbol viewBox="0 0 23 23" id="close-circle" xmlns="http://www.w3.org/2000/svg"><g transform="translate(.308 .34)" fill="none" fill-rule="evenodd"><circle stroke="#FFF" stroke-width="1.5" cx="11" cy="11" r="10.25"/><path fill="#FFF" fill-rule="nonzero" d="M16.692 6.767L15.584 5.66l-4.392 4.392L6.8 5.66 5.692 6.767l4.392 4.392-4.392 4.392L6.8 16.66l4.392-4.392 4.392 4.392 1.108-1.108L12.3 11.16z"/></g></symbol><symbol fill="none" viewBox="0 0 16 16" id="close-x" xmlns="http://www.w3.org/2000/svg"><path clip-rule="evenodd" d="M1.707.293A1 1 0 00.293 1.707L6.585 8 .293 14.291a1 1 0 101.414 1.415L8 9.414l6.292 6.292a1 1 0 101.415-1.415L9.414 8l6.292-6.292A1 1 0 1014.29.293L8 6.585 1.707.293z" fill="currentColor" fill-rule="evenodd"/></symbol><symbol viewBox="0 0 24 25" id="facebook" xmlns="http://www.w3.org/2000/svg"><path d="M22.675.75H1.325C.593.75 0 1.343 0 2.075v21.351c0 .731.593 1.324 1.325 1.324H12.82v-9.294H9.692v-3.622h3.128V9.163c0-3.1 1.893-4.788 4.659-4.788 1.325 0 2.463.099 2.795.143v3.24l-1.918.001c-1.504 0-1.795.715-1.795 1.763v2.313h3.587l-.467 3.622h-3.12v9.293h6.116c.73 0 1.323-.593 1.323-1.325V2.075C24 1.343 23.407.75 22.675.75z" fill="#FFF"/></symbol><symbol viewBox="0 0 30 30" id="facebook-bg" xmlns="http://www.w3.org/2000/svg"><path d="M15 0c8.284 0 15 6.74 15 15.053 0 7.706-5.77 14.06-13.21 14.947V18.03h3.538l.53-3.925h-4.069v-2.507c0-1.135.33-1.91 2.036-1.91L21 9.687v-3.51c-.376-.049-1.667-.156-3.17-.156-3.136 0-5.283 1.83-5.283 5.188v2.895H9v3.924h3.547v11.878C5.43 28.73 0 22.529 0 15.053 0 6.739 6.716 0 15 0z" fill="#0772BA" fill-rule="evenodd"/></symbol><symbol viewBox="0 0 24 25" id="facebook-bg-white" xmlns="http://www.w3.org/2000/svg"><path d="M22.675.75H1.325C.593.75 0 1.343 0 2.075v21.351c0 .731.593 1.324 1.325 1.324H12.82v-9.294H9.692v-3.622h3.128V9.163c0-3.1 1.893-4.788 4.659-4.788 1.325 0 2.463.099 2.795.143v3.24l-1.918.001c-1.504 0-1.795.715-1.795 1.763v2.313h3.587l-.467 3.622h-3.12v9.293h6.116c.73 0 1.323-.593 1.323-1.325V2.075C24 1.343 23.407.75 22.675.75z" fill="#FFF"/></symbol><symbol viewBox="0 0 19 15" id="full-arrow" xmlns="http://www.w3.org/2000/svg"><path d="M10.06 14.398l-1.59-1.414 5.37-4.785H-.01v-2h13.85L8.47 1.414 10.06 0l8.08 7.199z" fill-rule="evenodd"/></symbol><symbol fill="none" viewBox="0 0 24 24" id="icon-info" xmlns="http://www.w3.org/2000/svg"><mask id="ana" maskUnits="userSpaceOnUse" x="0" y="0" width="24" height="24"><circle cx="12" cy="12" r="11.5" fill="#AAADAE" stroke="#000"/></mask><g mask="url(#ana)"><circle cx="12" cy="12" r="12" fill="#AAADAE"/><path d="M11 6h2v2h-2zm0 4h2v8h-2z" fill="#fff"/></g></symbol><symbol fill="none" viewBox="0 0 15 15" id="icon-info-outline" xmlns="http://www.w3.org/2000/svg"><circle cx="7.5" cy="7.5" r="7" stroke="currentColor"/><path fill="currentColor" d="M6.75 3.25h1.5V4.5h-1.5zm0 2.5h1.5v6h-1.5z"/></symbol><symbol viewBox="0 0 50 40" id="icon-quote" xmlns="http://www.w3.org/2000/svg"><path d="M20.444 0v3.18c-4.633 2.387-7.946 4.865-9.939 7.463-2.007 2.584-3.003 5.407-3.003 8.456 0 1.816.269 3.061.794 3.737.472.716 1.05 1.087 1.738 1.087.673 0 1.602-.199 2.76-.583 1.159-.398 2.21-.583 3.152-.583 2.155 0 4.04.782 5.643 2.372C23.192 26.706 24 28.63 24 30.908c0 2.492-.983 4.625-2.923 6.401C19.125 39.1 16.714 40 13.818 40c-3.528 0-6.707-1.51-9.549-4.506C1.428 32.485 0 28.787 0 24.387 0 19.205 1.75 14.38 5.253 9.901 8.754 5.42 13.818 2.12 20.444 0m26 0v3.18c-4.633 2.387-7.946 4.865-9.939 7.463-2.007 2.584-3.003 5.407-3.003 8.456 0 1.816.269 3.061.794 3.737.472.716 1.05 1.087 1.738 1.087.673 0 1.602-.199 2.76-.583 1.159-.398 2.21-.583 3.152-.583 2.155 0 4.04.782 5.643 2.372C49.192 26.706 50 28.63 50 30.908c0 2.492-.983 4.625-2.923 6.401C45.125 39.1 42.714 40 39.818 40c-3.528 0-6.707-1.51-9.549-4.506C27.428 32.485 26 28.787 26 24.387c0-5.182 1.75-10.007 5.253-14.486C34.754 5.42 39.818 2.12 46.444 0" fill="#DFE3E4" fill-rule="evenodd"/></symbol><symbol viewBox="0 0 18 18" id="info-filled" xmlns="http://www.w3.org/2000/svg"><g fill="none" fill-rule="evenodd"><ellipse stroke="#FFF" stroke-width="1.2" fill="#FFF" cx="8.794" cy="8.795" rx="8.194" ry="8.195"/><path d="M7 13.016c0-.109.022-.27.065-.483l.029-.135c.029-.129.07-.291.122-.487L8.22 8.164c.01-.042.02-.083.027-.125a.638.638 0 00.012-.117c0-.214-.068-.346-.203-.399-.136-.052-.383-.085-.742-.101V7l.397-.033c.202-.018.439-.043.71-.073l.728-.085c.31-.04.544-.075.704-.106l.687-.133-1.373 5.051-.08.316-.062.264c-.052.238-.079.4-.079.486 0 .115.026.19.078.223a.31.31 0 00.172.05c.162 0 .362-.137.602-.413.24-.276.45-.565.633-.867l.351.226-.25.362c-.4.569-.715.964-.945 1.185-.453.438-.938.656-1.453.656-.292 0-.554-.09-.785-.27-.232-.179-.348-.454-.348-.823zM10.094 3c.297 0 .55.104.758.313.208.208.312.46.312.757s-.104.551-.312.762c-.209.211-.461.316-.758.316s-.551-.105-.762-.316a1.038 1.038 0 01-.316-.762c0-.297.105-.55.316-.758.211-.208.465-.312.762-.312z" fill="#0772BA" fill-rule="nonzero"/></g></symbol><symbol viewBox="0 0 22 23" id="info-outline" xmlns="http://www.w3.org/2000/svg"><g fill="none" fill-rule="evenodd"><ellipse stroke="#FFF" stroke-width="1.5" cx="10.992" cy="11.544" rx="10.242" ry="10.454"/><path d="M8.855 16.848c0-.136.028-.337.082-.604l.036-.168c.036-.161.087-.364.153-.61l1.253-4.683a2.9 2.9 0 00.034-.156.78.78 0 00.015-.147c0-.266-.085-.432-.254-.498-.17-.065-.479-.107-.928-.127v-.527l.497-.04c.253-.024.548-.055.887-.092l.911-.107c.386-.049.68-.093.879-.132l.86-.166-1.717 6.313c-.044.17-.077.302-.1.396l-.077.33c-.066.297-.099.5-.099.607 0 .144.033.237.098.279a.386.386 0 00.215.063c.201 0 .452-.172.752-.517.299-.345.563-.707.79-1.084l.44.283-.313.452c-.5.711-.894 1.205-1.181 1.482-.567.546-1.172.82-1.817.82a1.56 1.56 0 01-.981-.337c-.29-.225-.435-.568-.435-1.03zm3.868-12.52c.37 0 .687.13.947.39.26.261.39.577.39.948s-.13.688-.39.952-.576.396-.947.396-.689-.132-.952-.396a1.298 1.298 0 01-.396-.952c0-.371.132-.687.396-.947.263-.26.58-.39.952-.39z" fill="#FFF" fill-rule="nonzero"/></g></symbol><symbol viewBox="0 0 24 25" id="instagram" xmlns="http://www.w3.org/2000/svg"><path d="M15.233 6.238C14.39 6.2 14.136 6.192 12 6.192s-2.389.008-3.232.046c-2.17.099-3.181 1.127-3.279 3.279-.039.844-.048 1.097-.048 3.233s.009 2.389.047 3.233c.099 2.148 1.106 3.18 3.279 3.279.843.038 1.097.047 3.233.047 2.137 0 2.39-.008 3.233-.046 2.17-.099 3.18-1.129 3.279-3.279.038-.844.046-1.097.046-3.233s-.008-2.389-.046-3.232c-.099-2.153-1.111-3.182-3.279-3.281zM12 16.858a4.108 4.108 0 110-8.215 4.108 4.108 0 010 8.215zm4.271-7.418a.96.96 0 110-1.92.96.96 0 010 1.92zm-1.604 3.31a2.667 2.667 0 11-5.334 0 2.667 2.667 0 015.334 0zM19 .75H5a5 5 0 00-5 5v14a5 5 0 005 5h14a5 5 0 005-5v-14a5 5 0 00-5-5zm.952 15.298c-.132 2.909-1.751 4.521-4.653 4.654-.854.039-1.126.048-3.299.048s-2.444-.009-3.298-.048c-2.908-.133-4.52-1.748-4.654-4.654C4.009 15.195 4 14.923 4 12.75c0-2.172.009-2.445.048-3.298.134-2.908 1.748-4.521 4.654-4.653.854-.04 1.125-.049 3.298-.049s2.445.009 3.299.048c2.908.133 4.523 1.751 4.653 4.653.039.854.048 1.127.048 3.299 0 2.173-.009 2.445-.048 3.298z" fill="#FFF"/></symbol><symbol viewBox="0 0 30 30" id="instagram-bg" xmlns="http://www.w3.org/2000/svg"><path d="M15 30c8.284 0 15-6.716 15-15 0-8.284-6.716-15-15-15C6.716 0 0 6.716 0 15c0 8.284 6.716 15 15 15zm3.233-21.512c-.843-.038-1.097-.046-3.233-.046s-2.389.008-3.232.046c-2.17.099-3.181 1.127-3.279 3.279-.039.844-.048 1.097-.048 3.233s.009 2.389.047 3.233c.099 2.148 1.106 3.18 3.279 3.279.843.038 1.097.047 3.233.047 2.137 0 2.39-.008 3.233-.046 2.17-.099 3.18-1.129 3.279-3.279.038-.844.046-1.097.046-3.233s-.008-2.389-.046-3.232c-.099-2.153-1.111-3.182-3.279-3.281zM15 19.108a4.108 4.108 0 110-8.215 4.108 4.108 0 010 8.215zm4.271-7.418a.96.96 0 110-1.92.96.96 0 010 1.92zM17.667 15a2.667 2.667 0 11-5.334 0 2.667 2.667 0 015.334 0zm5.285 3.298c-.132 2.909-1.751 4.521-4.653 4.654-.854.039-1.126.048-3.299.048s-2.444-.009-3.298-.048c-2.908-.133-4.52-1.748-4.654-4.654C7.009 17.445 7 17.173 7 15c0-2.172.009-2.445.048-3.298.134-2.908 1.748-4.521 4.654-4.653C12.556 7.009 12.827 7 15 7s2.445.009 3.299.048c2.908.133 4.523 1.751 4.653 4.653.039.854.048 1.127.048 3.299 0 2.173-.009 2.445-.048 3.298z" fill="#0772BA"/></symbol><symbol viewBox="0 0 24 25" id="instagram-bg-white" xmlns="http://www.w3.org/2000/svg"><path d="M15.233 6.238C14.39 6.2 14.136 6.192 12 6.192s-2.389.008-3.232.046c-2.17.099-3.181 1.127-3.279 3.279-.039.844-.048 1.097-.048 3.233s.009 2.389.047 3.233c.099 2.148 1.106 3.18 3.279 3.279.843.038 1.097.047 3.233.047 2.137 0 2.39-.008 3.233-.046 2.17-.099 3.18-1.129 3.279-3.279.038-.844.046-1.097.046-3.233s-.008-2.389-.046-3.232c-.099-2.153-1.111-3.182-3.279-3.281zM12 16.858a4.108 4.108 0 110-8.215 4.108 4.108 0 010 8.215zm4.271-7.418a.96.96 0 110-1.92.96.96 0 010 1.92zm-1.604 3.31a2.667 2.667 0 11-5.334 0 2.667 2.667 0 015.334 0zM19 .75H5a5 5 0 00-5 5v14a5 5 0 005 5h14a5 5 0 005-5v-14a5 5 0 00-5-5zm.952 15.298c-.132 2.909-1.751 4.521-4.653 4.654-.854.039-1.126.048-3.299.048s-2.444-.009-3.298-.048c-2.908-.133-4.52-1.748-4.654-4.654C4.009 15.195 4 14.923 4 12.75c0-2.172.009-2.445.048-3.298.134-2.908 1.748-4.521 4.654-4.653.854-.04 1.125-.049 3.298-.049s2.445.009 3.299.048c2.908.133 4.523 1.751 4.653 4.653.039.854.048 1.127.048 3.299 0 2.173-.009 2.445-.048 3.298z" fill="#FFF"/></symbol><symbol fill="none" viewBox="0 0 24 24" id="link" xmlns="http://www.w3.org/2000/svg"><path d="M22.136 10.875l-4.505 4.504a6.368 6.368 0 01-9.009 0 6.365 6.365 0 01-.967-1.285l2.094-2.093c.1-.1.222-.158.34-.226.144.495.397.963.786 1.352a3.188 3.188 0 004.504 0l4.504-4.504a3.187 3.187 0 000-4.505 3.189 3.189 0 00-4.504 0L13.777 5.72a7.992 7.992 0 00-4.063-.442l3.413-3.413a6.37 6.37 0 019.01 9.009zm-11.91 7.406l-1.604 1.604a3.19 3.19 0 01-4.504 0 3.19 3.19 0 010-4.506l4.504-4.504a3.187 3.187 0 014.505 0c.388.388.64.856.787 1.35.118-.069.24-.125.339-.224l2.093-2.093a6.261 6.261 0 00-.967-1.285 6.37 6.37 0 00-9.01 0l-4.503 4.504a6.371 6.371 0 009.009 9.01l3.414-3.414a7.987 7.987 0 01-4.064-.442z" fill="currentColor"/></symbol><symbol fill="none" viewBox="0 0 25 18" id="mail" xmlns="http://www.w3.org/2000/svg"><path d="M2.11.203h20.78c1.162 0 2.11.98 2.11 2.18v13.29c0 1.2-.948 2.18-2.11 2.18H2.11c-1.162 0-2.11-.98-2.11-2.18V2.382c0-1.2.948-2.18 2.11-2.18zm.013 1.257l9.25 9.606c.655.676 1.598.674 2.254.002l9.251-9.608H2.123zm21.657.838l-6.566 6.823 6.57 6.11V2.382l-.004-.085zm-7.424 7.713l-1.87 1.944c-1.138 1.163-2.834 1.168-3.969 0l-1.856-1.93-6.957 6.47a.862.862 0 00.405.1h20.782a.861.861 0 00.426-.112l-6.96-6.472zm-8.553-.876L1.22 2.298l-.004.085V15.26l6.587-6.125z" fill="currentColor"/></symbol><symbol fill="none" viewBox="0 0 17 17" id="moon" xmlns="http://www.w3.org/2000/svg"><path clip-rule="evenodd" d="M8.5 16.323c-4.136 0-7.5-3.437-7.5-7.661C1 4.437 4.364 1 8.5 1 12.635 1 16 4.437 16 8.662c0 4.224-3.365 7.661-7.5 7.661z" stroke="currentColor"/><path clip-rule="evenodd" d="M8.086 2.999a5.87 5.87 0 012.045.37c-2.184.81-3.738 2.87-3.738 5.292 0 2.422 1.554 4.483 3.738 5.293a5.888 5.888 0 01-2.045.37c-3.193 0-5.781-2.535-5.781-5.663C2.305 5.534 4.893 3 8.086 3z" fill="currentColor" fill-rule="evenodd"/></symbol><symbol viewBox="0 0 28 34" id="refresh" xmlns="http://www.w3.org/2000/svg"><path d="M14.432.917l2.122 2.122-2.852 2.85a13.722 13.722 0 019.899 4.036c5.333 5.333 5.391 13.933.116 19.208-5.275 5.275-13.875 5.217-19.208-.116a13.71 13.71 0 01-4.026-9.184c-.06-1.566.148-3.129.62-4.618l2.86.907a10.557 10.557 0 00-.482 3.595 10.71 10.71 0 003.15 7.178c4.167 4.168 10.867 4.214 14.965.117 4.097-4.098 4.051-10.798-.116-14.966a10.71 10.71 0 00-8.673-3.103l3.843 3.844-2.122 2.121-7.043-7.043L14.432.917z" fill="#0772BA"/></symbol><symbol viewBox="0 0 28 34" id="replay" xmlns="http://www.w3.org/2000/svg"><path d="M14.432.917l2.122 2.122-2.852 2.85a13.722 13.722 0 019.899 4.036c5.333 5.333 5.391 13.933.116 19.208-5.275 5.275-13.875 5.217-19.208-.116a13.71 13.71 0 01-4.026-9.184c-.06-1.566.148-3.129.62-4.618l2.86.907a10.557 10.557 0 00-.482 3.595 10.71 10.71 0 003.15 7.178c4.167 4.168 10.867 4.214 14.965.117 4.097-4.098 4.051-10.798-.116-14.966a10.71 10.71 0 00-8.673-3.103l3.843 3.844-2.122 2.121-7.043-7.043L14.432.917z" fill="#fff"/></symbol><symbol viewBox="0 0 22 21" id="search" xmlns="http://www.w3.org/2000/svg"><path d="M3.161 2.661c3.124-3.124 8.058-3.255 11.02-.293 2.704 2.703 2.83 7.048.459 10.161.018.014.035.03.052.047l6.248 6.248a1 1 0 010 1.414l-.202.202a1 1 0 01-1.414 0l-6.248-6.248-.047-.052c-3.113 2.372-7.458 2.245-10.161-.458-2.962-2.963-2.831-7.897.293-11.02zm1.533 1.533c-2.232 2.231-2.326 5.755-.21 7.871 2.116 2.116 5.64 2.022 7.872-.21 2.231-2.23 2.325-5.755.21-7.87-2.117-2.117-5.64-2.023-7.872.209z" fill="#757575" fill-rule="evenodd"/></symbol><symbol viewBox="0 0 22 21" id="search-white" xmlns="http://www.w3.org/2000/svg"><path d="M3.161 2.661c3.124-3.124 8.058-3.255 11.02-.293 2.704 2.703 2.83 7.048.459 10.161.018.014.035.03.052.047l6.248 6.248a1 1 0 010 1.414l-.202.202a1 1 0 01-1.414 0l-6.248-6.248-.047-.052c-3.113 2.372-7.458 2.245-10.161-.458-2.962-2.963-2.831-7.897.293-11.02zm1.533 1.533c-2.232 2.231-2.326 5.755-.21 7.871 2.116 2.116 5.64 2.022 7.872-.21 2.231-2.23 2.325-5.755.21-7.87-2.117-2.117-5.64-2.023-7.872.209z" fill="#fff" fill-rule="evenodd"/></symbol><symbol viewBox="0 0 29 29" id="spf-tag" xmlns="http://www.w3.org/2000/svg"><g fill="none" fill-rule="evenodd"><circle fill="#F5C81C" cx="14.5" cy="14.5" r="14.5"/><text font-size="10" font-weight="bold" letter-spacing=".513" fill="#53565A"><tspan x="5" y="18">SPF</tspan></text></g></symbol><symbol fill="none" viewBox="0 0 17 17" id="sun" xmlns="http://www.w3.org/2000/svg"><path clip-rule="evenodd" d="M8.5 16.323c-4.135 0-7.5-3.437-7.5-7.662C1 4.438 4.365 1 8.5 1 12.636 1 16 4.437 16 8.662c0 4.224-3.364 7.661-7.5 7.661z" stroke="currentColor"/><path clip-rule="evenodd" d="M11.28 7.263a3.172 3.172 0 00-.572-.822l3.469-.181-2.579 2.377a3.218 3.218 0 00-.235-1.187l-.082-.187zm2.897 3.8l-2.579-2.377a3.17 3.17 0 01-.89 2.196l3.469.18-.76-.32.76.32zM10.85 14.46l-.176-3.543a3.097 3.097 0 01-.988.67 3.067 3.067 0 01-1.163.24l2.328 2.632zm0-11.597L8.524 5.496a3.03 3.03 0 011.163.24c.37.157.706.386.988.67l.177-3.543zM7.132 5.82c-.3.151-.571.35-.806.586l-.177-3.543 2.327 2.633a3.03 3.03 0 00-1.162.24l-.182.085zm.182 5.766a3.093 3.093 0 01-.988-.67l-.177 3.543.055-.136-.055.136 2.327-2.633a3.022 3.022 0 01-1.162-.24zM5.402 8.637a3.182 3.182 0 01.891-2.196l-3.47-.181.691.292-.69-.292 2.578 2.377zm-2.578 2.426l3.469-.181a3.177 3.177 0 01-.656-1.01 3.21 3.21 0 01-.235-1.186l-2.578 2.377zm8.096-2.42a2.48 2.48 0 00-.696-1.716l-.027.001.001-.028a2.43 2.43 0 00-.772-.523 2.365 2.365 0 00-.908-.188L8.5 6.21l-.019-.02a2.365 2.365 0 00-.908.187c-.29.123-.551.302-.771.523v.028l-.027-.001a2.481 2.481 0 00-.695 1.716l.02.019-.02.018a2.507 2.507 0 00.695 1.716l.028-.001-.001.028c.22.222.481.4.771.523.28.12.587.186.908.188l.019-.02.018.02c.322-.002.628-.069.908-.188.29-.123.552-.301.772-.523l-.001-.028.027.002a2.48 2.48 0 00.696-1.717l-.02-.018.02-.019z" fill="currentColor" fill-rule="evenodd"/></symbol><symbol viewBox="0 0 24 25" id="twitter" xmlns="http://www.w3.org/2000/svg"><path d="M19 .75H5a5 5 0 00-5 5v14a5 5 0 005 5h14a5 5 0 005-5v-14a5 5 0 00-5-5zm-.139 9.237c.209 4.617-3.234 9.765-9.33 9.765a9.286 9.286 0 01-5.032-1.475 6.605 6.605 0 004.86-1.359 3.285 3.285 0 01-3.066-2.28 3.3 3.3 0 001.482-.056c-1.579-.317-2.668-1.739-2.633-3.26.442.246.949.394 1.486.411A3.289 3.289 0 015.612 7.35a9.32 9.32 0 006.766 3.43 3.286 3.286 0 015.594-2.993 6.583 6.583 0 002.086-.796 3.296 3.296 0 01-1.443 1.816A6.578 6.578 0 0020.5 8.29a6.66 6.66 0 01-1.639 1.697z" fill="#FFF"/></symbol><symbol viewBox="0 0 30 30" id="twitter-bg" xmlns="http://www.w3.org/2000/svg"><path d="M15 30c8.284 0 15-6.716 15-15 0-8.284-6.716-15-15-15C6.716 0 0 6.716 0 15c0 8.284 6.716 15 15 15zm6.861-17.763c.209 4.617-3.234 9.765-9.33 9.765a9.286 9.286 0 01-5.032-1.475 6.605 6.605 0 004.86-1.359 3.285 3.285 0 01-3.066-2.28 3.3 3.3 0 001.482-.056c-1.579-.317-2.668-1.739-2.633-3.26.442.246.949.394 1.486.411A3.289 3.289 0 018.612 9.6a9.32 9.32 0 006.766 3.43 3.286 3.286 0 015.594-2.993 6.583 6.583 0 002.086-.796 3.296 3.296 0 01-1.443 1.816 6.578 6.578 0 001.885-.517 6.66 6.66 0 01-1.639 1.697z" fill="#0772BA"/></symbol><symbol viewBox="0 0 24 25" id="twitter-bg-white" xmlns="http://www.w3.org/2000/svg"><path d="M19 .75H5a5 5 0 00-5 5v14a5 5 0 005 5h14a5 5 0 005-5v-14a5 5 0 00-5-5zm-.139 9.237c.209 4.617-3.234 9.765-9.33 9.765a9.286 9.286 0 01-5.032-1.475 6.605 6.605 0 004.86-1.359 3.285 3.285 0 01-3.066-2.28 3.3 3.3 0 001.482-.056c-1.579-.317-2.668-1.739-2.633-3.26.442.246.949.394 1.486.411A3.289 3.289 0 015.612 7.35a9.32 9.32 0 006.766 3.43 3.286 3.286 0 015.594-2.993 6.583 6.583 0 002.086-.796 3.296 3.296 0 01-1.443 1.816A6.578 6.578 0 0020.5 8.29a6.66 6.66 0 01-1.639 1.697z" fill="#FFF"/></symbol><symbol viewBox="0 0 49 49" id="x-close" xmlns="http://www.w3.org/2000/svg"><path d="M1.873 1.873l45.254 45.254m-.5-44.754L1.373 47.627" stroke="#FFF" stroke-width="2" fill="none" fill-rule="evenodd" stroke-linecap="square"/></symbol></svg>